<svg xmlns="http://www.w3.org/2000/svg" width="194.44" height="35" viewBox="0 0 194.44 35"><rect class="svg__rect" x="0" y="0" width="85.38" height="35" fill="#D35B09"/><rect class="svg__rect" x="83.38" y="0" width="111.05999999999999" height="35" fill="#C13B3A"/><path class="svg__text" d="M19.80 22L14.22 22L14.22 13.47L19.75 13.47L19.75 14.66L15.70 14.66L15.70 17.02L19.20 17.02L19.20 18.19L15.70 18.19L15.70 20.82L19.80 20.82L19.80 22ZM25.47 22L23.99 22L23.99 13.47L25.47 13.47L29.29 19.54L29.29 13.47L30.76 13.47L30.76 22L29.28 22L25.47 15.95L25.47 22ZM35.25 18.13L35.25 18.13L35.25 17.46Q35.25 15.53 36.18 14.44Q37.10 13.35 38.76 13.35L38.76 13.35Q40.19 13.35 41.02 14.05Q41.86 14.76 42.03 16.08L42.03 16.08L40.58 16.08Q40.33 14.54 38.79 14.54L38.79 14.54Q37.80 14.54 37.28 15.26Q36.76 15.98 36.74 17.37L36.74 17.37L36.74 18.02Q36.74 19.40 37.32 20.17Q37.91 20.93 38.94 20.93L38.94 20.93Q40.08 20.93 40.56 20.42L40.56 20.42L40.56 18.75L38.80 18.75L38.80 17.62L42.04 17.62L42.04 20.89Q41.57 21.50 40.75 21.81Q39.93 22.12 38.89 22.12L38.89 22.12Q37.82 22.12 36.99 21.63Q36.17 21.14 35.72 20.24Q35.27 19.33 35.25 18.13ZM48.86 15.15L46.77 15.87L46.77 14.66L50.10 13.44L50.28 13.44L50.28 22L48.86 22L48.86 15.15ZM56.21 18.51L56.21 18.51L56.21 17.03Q56.21 15.19 56.90 14.27Q57.59 13.35 59.00 13.35L59.00 13.35Q60.40 13.35 61.09 14.25Q61.78 15.14 61.80 16.93L61.80 16.93L61.80 18.41Q61.80 20.25 61.11 21.18Q60.42 22.12 59.01 22.12L59.01 22.12Q57.63 22.12 56.93 21.21Q56.23 20.29 56.21 18.51ZM57.63 16.68L57.63 18.61Q57.63 19.81 57.96 20.39Q58.30 20.98 59.01 20.98L59.01 20.98Q59.70 20.98 60.03 20.44Q60.35 19.90 60.37 18.74L60.37 18.74L60.37 16.81Q60.37 15.61 60.04 15.05Q59.72 14.49 59.00 14.49L59.00 14.49Q58.30 14.49 57.98 15.02Q57.65 15.55 57.63 16.68L57.63 16.68ZM66.02 18.51L66.02 18.51L66.02 17.03Q66.02 15.19 66.71 14.27Q67.40 13.35 68.81 13.35L68.81 13.35Q70.21 13.35 70.90 14.25Q71.59 15.14 71.60 16.93L71.60 16.93L71.60 18.41Q71.60 20.25 70.92 21.18Q70.23 22.12 68.82 22.12L68.82 22.12Q67.44 22.12 66.74 21.21Q66.04 20.29 66.02 18.51ZM67.44 16.68L67.44 18.61Q67.44 19.81 67.77 20.39Q68.11 20.98 68.82 20.98L68.82 20.98Q69.51 20.98 69.83 20.44Q70.16 19.90 70.18 18.74L70.18 18.74L70.18 16.81Q70.18 15.61 69.85 15.05Q69.52 14.49 68.81 14.49L68.81 14.49Q68.11 14.49 67.78 15.02Q67.46 15.55 67.44 16.68L67.44 16.68Z" fill="#FFFFFF"/><path class="svg__text" d="M97.14 18.96L97.14 18.96Q97.14 17.41 97.87 16.15Q98.60 14.90 99.94 14.18Q101.28 13.46 103.03 13.46L103.03 13.46Q104.70 13.46 106.00 14.14Q107.30 14.82 108.03 16.01Q108.75 17.20 108.75 18.67L108.75 18.67Q108.75 19.74 108.41 20.52Q108.07 21.29 107.48 21.69Q106.88 22.09 106.12 22.09L106.12 22.09Q105.48 22.09 105.02 21.83Q104.56 21.57 104.35 21.05L104.35 21.05Q103.76 22.09 102.41 22.09L102.41 22.09Q101.70 22.09 101.09 21.72Q100.47 21.34 100.11 20.66Q99.74 19.97 99.74 19.08L99.74 19.08Q99.74 18.19 100.10 17.51Q100.46 16.83 101.07 16.45Q101.69 16.08 102.41 16.08L102.41 16.08Q103.46 16.08 104.07 16.77L104.07 16.77L104.07 16.18L106.03 16.18L106.03 19.84Q106.03 20.22 106.17 20.39Q106.32 20.56 106.56 20.56L106.56 20.56Q107.31 20.56 107.31 18.70L107.31 18.70Q107.31 17.56 106.78 16.67Q106.25 15.78 105.27 15.29Q104.30 14.79 103.03 14.79L103.03 14.79Q101.77 14.79 100.79 15.33Q99.81 15.87 99.27 16.82Q98.73 17.78 98.73 18.96L98.73 18.96Q98.73 20.18 99.26 21.14Q99.79 22.09 100.76 22.63Q101.72 23.17 102.98 23.17L102.98 23.17Q104.27 23.17 105.37 22.64L105.37 22.64L105.81 23.92Q105.27 24.19 104.51 24.34Q103.75 24.50 102.98 24.50L102.98 24.50Q101.24 24.50 99.91 23.78Q98.59 23.05 97.86 21.79Q97.14 20.54 97.14 18.96ZM101.75 19.08L101.75 19.08Q101.75 19.73 102.07 20.10Q102.40 20.46 102.92 20.46L102.92 20.46Q103.45 20.46 103.78 20.10Q104.11 19.74 104.11 19.08L104.11 19.08Q104.11 18.43 103.78 18.07Q103.45 17.72 102.92 17.72L102.92 17.72Q102.40 17.72 102.07 18.08Q101.75 18.44 101.75 19.08ZM112.90 21.24L112.90 21.24L113.68 19.49Q114.24 19.86 114.98 20.09Q115.73 20.32 116.45 20.32L116.45 20.32Q117.81 20.32 117.82 19.64L117.82 19.64Q117.82 19.28 117.43 19.11Q117.04 18.93 116.17 18.74L116.17 18.74Q115.22 18.53 114.59 18.30Q113.95 18.06 113.50 17.55Q113.04 17.03 113.04 16.16L113.04 16.16Q113.04 15.39 113.46 14.77Q113.88 14.15 114.72 13.79Q115.55 13.43 116.76 13.43L116.76 13.43Q117.58 13.43 118.39 13.62Q119.19 13.80 119.81 14.17L119.81 14.17L119.08 15.93Q117.88 15.28 116.75 15.28L116.75 15.28Q116.04 15.28 115.71 15.49Q115.39 15.70 115.39 16.04L115.39 16.04Q115.39 16.37 115.78 16.54Q116.16 16.71 117.01 16.89L117.01 16.89Q117.97 17.10 118.60 17.33Q119.23 17.56 119.69 18.07Q120.16 18.58 120.16 19.46L120.16 19.46Q120.16 20.21 119.74 20.83Q119.32 21.44 118.48 21.80Q117.64 22.17 116.44 22.17L116.44 22.17Q115.42 22.17 114.45 21.92Q113.49 21.67 112.90 21.24ZM127.11 22L124.73 22L124.73 13.60L128.58 13.60Q129.71 13.60 130.55 13.98Q131.39 14.35 131.85 15.06Q132.31 15.76 132.31 16.71L132.31 16.71Q132.31 17.66 131.85 18.35Q131.39 19.05 130.55 19.42Q129.71 19.80 128.58 19.80L128.58 19.80L127.11 19.80L127.11 22ZM127.11 15.47L127.11 17.93L128.43 17.93Q129.16 17.93 129.53 17.61Q129.91 17.29 129.91 16.71L129.91 16.71Q129.91 16.12 129.53 15.80Q129.16 15.47 128.43 15.47L128.43 15.47L127.11 15.47ZM138.48 22L136.05 22L139.76 13.60L142.10 13.60L145.82 22L143.35 22L142.69 20.37L139.14 20.37L138.48 22ZM140.92 15.93L139.83 18.61L141.99 18.61L140.92 15.93ZM152.35 22L149.97 22L149.97 13.60L153.82 13.60Q154.96 13.60 155.80 13.98Q156.64 14.35 157.09 15.06Q157.55 15.76 157.55 16.71L157.55 16.71Q157.55 17.62 157.12 18.30Q156.69 18.98 155.90 19.36L155.90 19.36L157.71 22L155.17 22L153.65 19.77L152.35 19.77L152.35 22ZM152.35 15.47L152.35 17.93L153.67 17.93Q154.40 17.93 154.78 17.61Q155.15 17.29 155.15 16.71L155.15 16.71Q155.15 16.12 154.78 15.79Q154.40 15.47 153.67 15.47L153.67 15.47L152.35 15.47ZM164.13 15.48L161.55 15.48L161.55 13.60L169.07 13.60L169.07 15.48L166.50 15.48L166.50 22L164.13 22L164.13 15.48ZM174.86 22L172.43 22L176.14 13.60L178.49 13.60L182.20 22L179.73 22L179.07 20.37L175.52 20.37L174.86 22ZM177.30 15.93L176.21 18.61L178.37 18.61L177.30 15.93Z" fill="#FFFFFF" x="96.38"/></svg>